<?xml version="1.0" encoding="UTF-8"?>
<!DOCTYPE svg PUBLIC "-//W3C//DTD SVG 1.0//EN" "http://www.w3.org/TR/2001/REC-SVG-20010904/DTD/svg10.dtd">
<!-- Creator: CorelDRAW X8 -->
<svg xmlns="http://www.w3.org/2000/svg" xml:space="preserve" width="15in" height="15in" version="1.0" style="shape-rendering:geometricPrecision; text-rendering:geometricPrecision; image-rendering:optimizeQuality; fill-rule:evenodd; clip-rule:evenodd"
viewBox="0 0 15000 15000"
 xmlns:xlink="http://www.w3.org/1999/xlink">
 <defs>
  <style type="text/css">
   <![CDATA[
    .str0 {stroke:black;stroke-width:3;stroke-linejoin:bevel}
    .fil0 {fill:none}
   ]]>
  </style>
 </defs>
 <g id="Layer_x0020_1">
  <metadata id="CorelCorpID_0Corel-Layer"/>
  <path class="fil0 str0" d="M11379 12885l322 -138c122,-55 127,-198 16,-429l-1174 -3133c-42,-112 -64,-231 -64,-351 0,120 -21,239 -64,351l-1468 3915c-81,218 -302,351 -533,321l-3836 -504c-2488,-327 -4349,-2448 -4349,-4958l0 -750 0 -750c0,-2509 1861,-4630 4349,-4957l3836 -504c231,-30 452,102 533,320l1468 3915c43,112 64,231 64,351 0,-120 22,-239 64,-351l1213 -3235c111,-231 105,-374 -16,-429l-322 -138c-25,91 -14,198 33,320 23,86 -10,138 -98,156 -33,2 -67,2 -93,-7 -196,-72 -246,-306 -175,-502 71,-196 277,-319 473,-248 99,36 185,98 427,237l26 -69c82,-218 303,-350 533,-320 2635,4141 2635,8282 0,12423 -230,30 -451,-103 -533,-321l-62 -166c-294,164 -340,202 -443,239 -196,72 -405,-59 -476,-255 -71,-196 -18,-423 177,-494 42,-15 102,-6 147,-3 58,24 77,72 58,144 -47,122 -58,229 -33,320l0 0zm-3091 -11488l18 635 397 -11 -18 -636 -397 12zm7 11631l18 -636 397 11 -18 636 -397 -11z"/>
 </g>
</svg>
