<?xml version="1.0" encoding="UTF-8"?>
<!DOCTYPE svg PUBLIC "-//W3C//DTD SVG 1.0//EN" "http://www.w3.org/TR/2001/REC-SVG-20010904/DTD/svg10.dtd">
<!-- Creator: CorelDRAW X8 -->
<svg xmlns="http://www.w3.org/2000/svg" xml:space="preserve" width="32in" height="2in" version="1.0" style="shape-rendering:geometricPrecision; text-rendering:geometricPrecision; image-rendering:optimizeQuality; fill-rule:evenodd; clip-rule:evenodd"
viewBox="0 0 32000 2000"
 xmlns:xlink="http://www.w3.org/1999/xlink">
 <defs>
  <style type="text/css">
   <![CDATA[
    .str0 {stroke:black;stroke-width:3;stroke-linejoin:bevel}
    .fil0 {fill:none}
   ]]>
  </style>
 </defs>
 <g id="Layer_x0020_1">
  <metadata id="CorelCorpID_0Corel-Layer"/>
  <path class="fil0 str0" d="M19182 684c-170,-112 -338,-112 -505,0 -170,111 -339,111 -505,0 -170,-112 -339,-112 -505,0 -171,111 -339,111 -505,0 -171,-112 -339,-112 -506,0 -170,111 -338,111 -505,0 -170,-112 -339,-112 -505,0 -170,111 -339,111 -505,0 -171,-112 -339,-112 -505,0 -171,111 -339,111 -506,0 -170,-112 -338,-112 -505,0 -170,111 -339,111 -505,0 -170,-112 -339,-112 -505,0 -171,111 -339,111 -505,0 -171,-112 -339,-112 -506,0 -170,111 -338,111 -505,0 -170,-112 -339,-112 -505,0 -170,111 -339,111 -505,0 -171,-112 -339,-112 -506,0 -170,111 -338,111 -505,0 -170,-112 -339,-112 -505,0 -170,111 -339,111 -505,0 -171,-112 -339,-112 -505,0 -171,111 -339,111 -506,0 -170,-112 -338,-112 -505,0 -170,111 -339,111 -505,0 -170,-112 -339,-112 -505,0 -171,111 -339,111 -505,0 -171,-112 -339,-112 -506,0 -170,111 -338,111 -505,0 -170,-112 -339,-112 -505,0 -170,111 -339,111 -505,0 -171,-112 -339,-112 -505,0 -171,111 -339,111 -506,0 -170,-112 -318,-112 -484,0 -202,197 -202,408 0,632 166,112 314,112 484,0 167,-111 335,-111 506,0 166,112 334,112 505,0 166,-111 335,-111 505,0 166,112 335,112 505,0 167,-111 335,-111 505,0 167,112 335,112 506,0 166,-111 334,-111 505,0 166,112 335,112 505,0 166,-111 335,-111 505,0 167,112 335,112 505,0 167,-111 335,-111 506,0 166,112 334,112 505,0 166,-111 335,-111 505,0 166,112 335,112 505,0 167,-111 335,-111 505,0 167,112 335,112 506,0 166,-111 335,-111 505,0 166,112 335,112 505,0 167,-111 335,-111 505,0 167,112 335,112 506,0 166,-111 334,-111 505,0 166,112 335,112 505,0 166,-111 335,-111 505,0 167,112 335,112 505,0 167,-111 335,-111 506,0 166,112 334,112 505,0 166,-111 335,-111 505,0 166,112 335,112 505,0 167,-111 335,-111 505,0 167,112 335,112 506,0 166,-111 334,-111 505,0 166,112 335,112 505,0 166,-111 335,-111 505,0 167,112 335,112 505,0 167,-111 335,-111 506,0 166,112 334,112 505,0 166,-111 335,-111 505,0 167,112 335,112 505,0 167,-111 335,-111 505,0 167,112 335,112 506,0 166,-111 335,-111 505,0 166,112 335,112 505,0 167,-111 335,-111 505,0 167,112 335,112 506,0 166,-111 334,-111 505,0 166,112 335,112 505,0 166,-111 335,-111 505,0 167,112 335,112 505,0 167,-111 335,-111 506,0 166,112 334,112 505,0 166,-111 657,185 864,184l1997 0c1,0 2,0 3,0 276,0 500,-224 500,-500 0,-276 -224,-500 -500,-500l-2000 0c-274,2 -698,295 -864,184 -171,-112 -339,-112 -505,0 -171,111 -339,111 -506,0 -170,-112 -338,-112 -505,0 -170,111 -339,111 -505,0 -170,-112 -339,-112 -505,0 -171,111 -339,111 -505,0 -171,-112 -339,-112 -506,0 -170,111 -338,111 -505,0 -170,-112 -339,-112 -505,0 -170,111 -339,111 -505,0 -171,-112 -339,-112 -506,0 -170,111 -338,111 -505,0 -170,-112 -338,-112 -505,0 -170,111 -339,111 -505,0 -171,-112 -339,-112 -505,0 -171,111 -339,111 -506,0zm10089 84l639 0 0 464 -639 0 0 -464z"/>
 </g>
</svg>
