<?xml version="1.0" encoding="UTF-8"?>
<!DOCTYPE svg PUBLIC "-//W3C//DTD SVG 1.0//EN" "http://www.w3.org/TR/2001/REC-SVG-20010904/DTD/svg10.dtd">
<!-- Creator: CorelDRAW X8 -->
<svg xmlns="http://www.w3.org/2000/svg" xml:space="preserve" width="26in" height="2in" version="1.0" style="shape-rendering:geometricPrecision; text-rendering:geometricPrecision; image-rendering:optimizeQuality; fill-rule:evenodd; clip-rule:evenodd"
viewBox="0 0 26000 2000"
 xmlns:xlink="http://www.w3.org/1999/xlink">
 <defs>
  <style type="text/css">
   <![CDATA[
    .str0 {stroke:black;stroke-width:3;stroke-linejoin:bevel}
    .fil0 {fill:none}
   ]]>
  </style>
 </defs>
 <g id="Layer_x0020_1">
  <metadata id="CorelCorpID_0Corel-Layer"/>
  <path class="fil0 str0" d="M16826 548c21,3 37,21 37,42 4,304 81,386 231,606 8,8 19,13 31,13 46,0 71,-80 71,-118 0,-87 -15,-107 -39,-168l2 5c-17,-43 -56,-89 -56,-138 0,-209 199,-305 408,-305 208,0 407,96 407,305 0,49 -39,95 -56,138 -24,61 -38,81 -38,169 0,36 25,110 68,110 13,0 24,-6 32,-15 145,-218 225,-305 229,-606 3,-20 21,-35 42,-35 3,0 6,0 8,1 56,10 106,39 143,81 170,111 538,211 704,100 171,-112 339,-112 505,0 171,111 339,111 506,0 170,-112 338,-112 505,0 170,111 339,111 505,0 170,-112 339,-112 505,0 171,111 339,111 506,0 170,-112 338,-112 505,0 170,111 339,111 505,0 170,-112 339,-112 505,0 171,111 339,111 505,0 171,-112 339,-112 506,0 170,111 338,111 505,0 170,-112 318,-112 484,0 202,197 202,408 0,633 -166,111 -314,111 -484,0 -167,-112 -335,-112 -505,0 -167,111 -335,111 -506,0 -166,-112 -334,-112 -505,0 -166,111 -335,111 -505,0 -166,-112 -335,-112 -505,0 -167,111 -335,111 -505,0 -167,-112 -335,-112 -506,0 -166,111 -335,111 -505,0 -166,-112 -335,-112 -505,0 -167,111 -335,111 -505,0 -167,-112 -335,-112 -506,0 -166,111 -334,111 -505,0 -166,-112 -611,-31 -781,80 -86,65 -191,102 -302,102l-9625 0 -5687 0 -1997 0c-1,0 -2,0 -3,0 -276,0 -500,-224 -500,-500 0,-276 224,-500 500,-500l2000 0 5460 0c21,3 37,21 37,42 4,304 81,386 231,606 8,8 19,13 31,13 46,0 70,-80 70,-118 0,-87 -14,-107 -38,-168l2 5c-17,-43 -56,-89 -56,-138 0,-209 199,-305 407,-305 209,0 408,96 408,305 0,49 -39,95 -56,138l2 -5c-24,61 -39,81 -39,168 0,38 25,118 71,118 12,0 23,-5 31,-13 150,-220 227,-302 231,-606 0,-22 16,-39 36,-42l7343 0zm-15312 268l-639 0 0 464 639 0 0 -464z"/>
 </g>
</svg>
