<?xml version="1.0" encoding="UTF-8"?>
<!DOCTYPE svg PUBLIC "-//W3C//DTD SVG 1.0//EN" "http://www.w3.org/TR/2001/REC-SVG-20010904/DTD/svg10.dtd">
<!-- Creator: CorelDRAW X8 -->
<svg xmlns="http://www.w3.org/2000/svg" xml:space="preserve" width="24in" height="24in" version="1.0" style="shape-rendering:geometricPrecision; text-rendering:geometricPrecision; image-rendering:optimizeQuality; fill-rule:evenodd; clip-rule:evenodd"
viewBox="0 0 24000 24000"
 xmlns:xlink="http://www.w3.org/1999/xlink">
 <defs>
  <style type="text/css">
   <![CDATA[
    .str0 {stroke:red;stroke-width:3;stroke-linejoin:bevel}
    .fil0 {fill:none}
   ]]>
  </style>
 </defs>
 <g id="Layer_x0020_1">
  <metadata id="CorelCorpID_0Corel-Layer"/>
  <path class="fil0 str0" d="M12000 19143l-210 0 -210 0c-2510,0 -4631,-1861 -4957,-4349l-504 -3836c-31,-231 102,-452 320,-533l3915 -1468c112,-43 231,-64 351,-64 -120,0 -241,-5 -353,-47 -709,79 -1383,-82 -1979,-315 -227,-75 -454,-149 -669,-164 -215,-15 -418,31 -564,90 -147,60 -237,135 -337,174 -100,39 -209,43 -324,15 -115,-28 -234,-87 -332,-151 -97,-64 -171,-134 -224,-223 -52,-90 -208,-379 -185,-664 23,-290 212,-629 381,-780 1960,-1248 3921,-1905 5881,-1971 1960,66 3921,723 5881,1971 169,151 358,490 381,780 23,285 -133,574 -185,664 -53,89 -127,159 -224,223 -98,64 -217,123 -332,151 -115,28 -224,24 -324,-15 -100,-39 -190,-114 -337,-174 -146,-59 -349,-105 -564,-90 -215,15 -442,89 -669,164 -596,233 -1270,394 -1979,315 -112,42 -233,47 -353,47 120,0 239,21 351,64l3915 1468c218,81 351,302 320,533l-504 3836c-326,2488 -2447,4349 -4957,4349l-210 0 -210 0zm-4857 -8465l-639 0 0 464 639 0 0 -464zm-244 -2668l-487 -415 -301 354 487 414 301 -353zm9958 2668l639 0 0 464 -639 0 0 -464zm244 -2668l487 -415 301 354 -487 414 -301 -353z"/>
 </g>
</svg>
